<svg width="32" height="34" viewBox="0 0 32 34" fill="none" xmlns="http://www.w3.org/2000/svg">
<path fill-rule="evenodd" clip-rule="evenodd" d="M24.775 7C24.7367 6.8322 24.6937 6.66546 24.6458 6.5C24.5533 6.18002 24.4429 5.86479 24.3149 5.55585C23.8626 4.46392 23.1997 3.47177 22.364 2.63604C21.5282 1.80031 20.5361 1.13738 19.4442 0.685084C18.3522 0.232792 17.1819 0 16 0C14.8181 0 13.6478 0.232792 12.5558 0.685084C11.4639 1.13738 10.4718 1.80031 9.63604 2.63604C8.80031 3.47177 8.13738 4.46392 7.68508 5.55585C7.55711 5.8648 7.44672 6.18002 7.35419 6.5C7.30635 6.66546 7.26328 6.8322 7.22504 7H3C1.34315 7 0 8.34315 0 10V31C0 32.6569 1.34315 34 3 34H29C30.6569 34 32 32.6569 32 31V10C32 8.34315 30.6569 7 29 7H24.775ZM11.4038 4.40381C10.8034 5.00418 10.3265 5.71633 10 6.5L16 6.5H22C21.6735 5.71633 21.1966 5.00418 20.5962 4.40381C19.9926 3.80023 19.2761 3.32144 18.4874 2.99478C17.6988 2.66813 16.8536 2.5 16 2.5C15.1464 2.5 14.3012 2.66813 13.5126 2.99478C12.7239 3.32144 12.0074 3.80023 11.4038 4.40381ZM2.5 10C2.5 9.72386 2.72386 9.5 3 9.5H29C29.2761 9.5 29.5 9.72386 29.5 10V31C29.5 31.2761 29.2761 31.5 29 31.5H3C2.72386 31.5 2.5 31.2761 2.5 31V10Z" fill="#FEF9F5"/>
</svg>
